<svg xmlns="http://www.w3.org/2000/svg" viewBox="0 0 560 140" width="560" height="140" role="img" aria-label="TrueClean logo">
  <title>TrueClean</title>
  <defs>
    <linearGradient id="tc-bg" x1="0" y1="0" x2="1" y2="1">
      <stop offset="0" stop-color="#13A6B8"/>
      <stop offset="1" stop-color="#1CB46A"/>
    </linearGradient>
    <linearGradient id="tc-word" x1="0" y1="0" x2="1" y2="0">
      <stop offset="0" stop-color="#13A6B8"/>
      <stop offset="1" stop-color="#1CB46A"/>
    </linearGradient>
  </defs>
  <g transform="translate(20,22) scale(0.1875)">
    <rect x="0" y="0" width="512" height="512" rx="112" ry="112" fill="url(#tc-bg)"/>
    <path d="M 268 394 A 138 138 0 1 0 394 268" fill="none" stroke="#ffffff" stroke-width="54" stroke-linecap="round"/>
    <path d="M 210,138 L 221,189 L 272,200 L 221,211 L 210,262 L 199,211 L 148,200 L 199,189 Z" fill="#ffffff"/>
    <path d="M 322,292 L 327,313 L 348,318 L 327,323 L 322,344 L 317,323 L 296,318 L 317,313 Z" fill="#ffffff" opacity="0.92"/>
  </g>
  <text x="140" y="93" font-family="Inter, -apple-system, BlinkMacSystemFont, 'Segoe UI', system-ui, sans-serif" font-size="62" font-weight="700" letter-spacing="-1.5">
    <tspan fill="#0C3740">True</tspan><tspan fill="url(#tc-word)">Clean</tspan>
  </text>
</svg>
