<svg xmlns="http://www.w3.org/2000/svg" viewBox="0 0 1280 832" width="1280" height="832" role="img" aria-label="TrueClean splash">
  <title>TrueClean</title>
  <defs>
    <linearGradient id="tc-bg" x1="0" y1="0" x2="1" y2="1">
      <stop offset="0" stop-color="#13A6B8"/>
      <stop offset="1" stop-color="#1CB46A"/>
    </linearGradient>
    <linearGradient id="tc-word" x1="0" y1="0" x2="1" y2="0">
      <stop offset="0" stop-color="#13A6B8"/>
      <stop offset="1" stop-color="#1CB46A"/>
    </linearGradient>
    <radialGradient id="tc-glow" cx="0.5" cy="0.4" r="0.6">
      <stop offset="0" stop-color="#13A6B8" stop-opacity="0.10"/>
      <stop offset="1" stop-color="#13A6B8" stop-opacity="0"/>
    </radialGradient>
  </defs>
  <rect x="0" y="0" width="1280" height="832" fill="#F7F9FA"/>
  <rect x="0" y="0" width="1280" height="832" fill="url(#tc-glow)"/>
  <g transform="translate(560,236) scale(0.3125)">
    <rect x="0" y="0" width="512" height="512" rx="112" ry="112" fill="url(#tc-bg)"/>
    <path d="M 268 394 A 138 138 0 1 0 394 268" fill="none" stroke="#ffffff" stroke-width="54" stroke-linecap="round"/>
    <path d="M 210,138 L 221,189 L 272,200 L 221,211 L 210,262 L 199,211 L 148,200 L 199,189 Z" fill="#ffffff"/>
    <path d="M 322,292 L 327,313 L 348,318 L 327,323 L 322,344 L 317,323 L 296,318 L 317,313 Z" fill="#ffffff" opacity="0.92"/>
  </g>
  <text x="640" y="500" text-anchor="middle" font-family="Inter, -apple-system, BlinkMacSystemFont, 'Segoe UI', system-ui, sans-serif" font-size="64" font-weight="700" letter-spacing="-2">
    <tspan fill="#0C3740">True</tspan><tspan fill="url(#tc-word)">Clean</tspan>
  </text>
  <text x="640" y="556" text-anchor="middle" font-family="Inter, -apple-system, BlinkMacSystemFont, 'Segoe UI', system-ui, sans-serif" font-size="22" font-weight="500" fill="#5A6B72" letter-spacing="0.5">
    看清楚 · 清得安全 · 让 AI 帮你判断
  </text>
  <text x="640" y="588" text-anchor="middle" font-family="Inter, -apple-system, BlinkMacSystemFont, 'Segoe UI', system-ui, sans-serif" font-size="14" font-weight="500" fill="#94A3A8" letter-spacing="2">
    AI-POWERED DISK CLEANER
  </text>
</svg>
